<svg width="124" height="32" viewBox="0 0 124 32" fill="none" xmlns="http://www.w3.org/2000/svg">
<g clip-path="url(#clip0_1_95)">
<path d="M4.16418 15.3165C3.42388 15.3165 2.68358 15.3165 1.94328 15.2254C1.20299 15.2254 0.555224 15.1342 0 14.9519V1.82366C0.277612 1.73249 0.555224 1.73249 0.925373 1.64132C1.29552 1.55015 1.57313 1.55015 1.94328 1.55015C2.31343 1.55015 2.59104 1.45898 2.96119 1.45898C3.33134 1.45898 3.60896 1.45898 3.88657 1.45898C4.7194 1.45898 5.4597 1.55015 6.2 1.64132C6.9403 1.73249 7.49552 2.00599 8.05075 2.2795C8.60597 2.553 8.97612 2.91767 9.25373 3.37351C9.53134 3.82935 9.71642 4.46753 9.71642 5.10571C9.71642 5.74389 9.53134 6.29089 9.25373 6.74673C8.97612 7.29374 8.51343 7.65841 7.95821 7.93192C8.79105 8.20542 9.43881 8.5701 9.80896 9.1171C10.1791 9.66411 10.3642 10.3023 10.3642 11.1228C10.3642 12.4903 9.80896 13.5843 8.79105 14.3137C7.86567 15.043 6.29254 15.3165 4.16418 15.3165ZM2.49851 9.1171V13.2197C2.77612 13.2197 3.05373 13.3108 3.42388 13.3108C3.70149 13.3108 4.07164 13.3108 4.25672 13.3108C4.81194 13.3108 5.27463 13.3108 5.64478 13.2197C6.10746 13.1285 6.47761 13.0373 6.75522 12.855C7.12537 12.6727 7.31045 12.4903 7.49552 12.2168C7.6806 11.9433 7.77313 11.5786 7.77313 11.1228C7.77313 10.3935 7.49552 9.84645 6.9403 9.48178C6.47761 9.20827 5.64478 9.1171 4.62687 9.1171H2.49851ZM2.49851 7.11141H4.25672C5.18209 7.11141 5.92239 7.02024 6.47761 6.74673C7.03284 6.47323 7.31045 6.01739 7.31045 5.28804C7.31045 4.64987 7.03284 4.19403 6.47761 3.92052C5.82985 3.64702 5.08955 3.46468 4.25672 3.46468C3.88657 3.46468 3.51642 3.46468 3.23881 3.46468C2.96119 3.46468 2.68358 3.46468 2.49851 3.55585V7.11141Z" fill="#0A1D3D"/>
<path d="M20.9134 14.8604C20.4507 14.9516 19.8955 15.1339 19.1552 15.2251C18.4149 15.3162 17.5821 15.4074 16.7493 15.4074C15.9164 15.4074 15.1761 15.3162 14.6209 15.0427C14.0657 14.7692 13.603 14.4957 13.2328 14.0399C12.8627 13.584 12.6776 13.1282 12.4925 12.5812C12.3075 12.0342 12.3075 11.396 12.3075 10.6667V4.92308H14.7134V10.302C14.7134 11.396 14.8985 12.2165 15.1761 12.6724C15.5463 13.1282 16.1015 13.4017 16.8418 13.4017C17.1194 13.4017 17.397 13.4017 17.7672 13.4017C18.1373 13.4017 18.3224 13.3105 18.5075 13.3105V4.92308H20.9134V14.8604Z" fill="#0A1D3D"/>
<path d="M26.003 13.4933C26.6507 13.4933 27.1134 13.4022 27.391 13.311C27.6686 13.1287 27.8537 12.8552 27.8537 12.4905C27.8537 12.1258 27.6686 11.8523 27.391 11.67C27.1134 11.4877 26.5582 11.2141 25.9104 10.9406C25.4478 10.7583 25.0776 10.576 24.7075 10.4848C24.3373 10.3025 24.0597 10.1201 23.7821 9.84663C23.5045 9.57312 23.3194 9.29962 23.1343 9.02611C22.9492 8.66144 22.9492 8.29677 22.9492 7.74976C22.9492 6.83808 23.3194 6.10873 23.9672 5.56172C24.7075 5.01472 25.6328 4.74121 26.8358 4.74121C27.4836 4.74121 28.0388 4.83238 28.594 4.92355C29.1492 5.01472 29.5194 5.10588 29.797 5.19705L29.3343 7.11158C29.0567 7.02041 28.7791 6.92925 28.3164 6.83808C27.9463 6.74691 27.391 6.65574 26.9283 6.65574C26.4657 6.65574 26.003 6.74691 25.7254 6.92925C25.4478 7.11158 25.2627 7.29392 25.2627 7.65859C25.2627 7.84093 25.2627 8.02326 25.3552 8.11443C25.4478 8.2056 25.5403 8.38794 25.6328 8.4791C25.8179 8.57027 26.003 8.66144 26.188 8.84378C26.4657 8.93494 26.7433 9.02611 27.0209 9.20845C27.5761 9.39078 28.0388 9.66429 28.5015 9.84663C28.8716 10.029 29.2418 10.3025 29.4269 10.576C29.7045 10.8495 29.8895 11.123 29.9821 11.3965C30.0746 11.67 30.1672 12.1258 30.1672 12.5817C30.1672 13.5845 29.797 14.3139 29.0567 14.8609C28.3164 15.3167 27.2985 15.5902 25.9104 15.5902C24.9851 15.5902 24.2448 15.499 23.6895 15.3167C23.1343 15.1344 22.7642 15.0432 22.4866 14.952L22.8567 12.9463C23.2269 13.1287 23.597 13.2198 24.1522 13.4022C24.8 13.4022 25.4478 13.4933 26.003 13.4933Z" fill="#0A1D3D"/>
<path d="M34.4236 15.2251H32.0176V4.92315H34.4236V15.2251ZM34.7012 1.9146C34.7012 2.37045 34.5161 2.73512 34.2385 3.00862C33.9609 3.28213 33.5908 3.37329 33.2206 3.37329C32.8505 3.37329 32.4803 3.28213 32.2027 3.00862C31.9251 2.73512 31.74 2.37045 31.74 1.9146C31.74 1.45876 31.9251 1.09409 32.2027 0.820588C32.4803 0.547084 32.8505 0.455915 33.2206 0.455915C33.5908 0.455915 33.9609 0.547084 34.2385 0.820588C34.5161 1.18526 34.7012 1.45876 34.7012 1.9146Z" fill="#0A1D3D"/>
<path d="M37.0149 5.28822C37.4776 5.19705 38.0329 5.01472 38.7731 4.92355C39.5134 4.83238 40.3463 4.74121 41.2717 4.74121C42.1045 4.74121 42.8448 4.83238 43.4 5.10588C43.9552 5.28822 44.4179 5.65289 44.7881 6.10873C45.1582 6.4734 45.3433 7.02041 45.5284 7.56742C45.7134 8.11443 45.7134 8.75261 45.7134 9.48195V15.2255H43.3075V9.84662C43.3075 9.29962 43.3075 8.84378 43.2149 8.4791C43.1224 8.11443 43.0299 7.74976 42.8448 7.56742C42.6597 7.29392 42.4746 7.11158 42.197 7.02041C41.9194 6.92925 41.5493 6.83808 41.1791 6.83808C40.9015 6.83808 40.5314 6.83808 40.2537 6.92925C39.8836 6.92925 39.6985 7.02041 39.5134 7.02041V15.3167H37.0149V5.28822Z" fill="#0A1D3D"/>
<path d="M47.4717 10.1201C47.4717 9.20845 47.5642 8.38793 47.8418 7.74976C48.1195 7.11158 48.4896 6.4734 48.9523 6.10873C49.415 5.65289 49.8777 5.28822 50.5254 5.10588C51.0806 4.83238 51.7284 4.74121 52.2836 4.74121C53.6717 4.74121 54.7821 5.19705 55.615 6.01756C56.4478 6.92925 56.818 8.2056 56.818 9.93779C56.818 10.029 56.818 10.2113 56.818 10.3936C56.818 10.576 56.818 10.6671 56.818 10.8495H49.9702C50.0627 11.67 50.3404 12.3082 50.803 12.764C51.3583 13.2198 52.0986 13.4022 53.1165 13.4022C53.6717 13.4022 54.2269 13.311 54.6896 13.2198C55.1523 13.1287 55.5224 13.0375 55.8001 12.8552L56.0777 14.7697C55.9851 14.8609 55.8001 14.952 55.5224 14.952C55.3374 15.0432 55.0598 15.0432 54.6896 15.1344C54.412 15.2255 54.0418 15.2255 53.7642 15.3167C53.3941 15.3167 53.1165 15.4079 52.7463 15.4079C51.8209 15.4079 51.0807 15.3167 50.3404 15.0432C49.6926 14.7697 49.1374 14.405 48.6747 13.9492C48.212 13.4933 47.9344 12.9463 47.7493 12.3082C47.5642 11.5788 47.4717 10.9406 47.4717 10.1201ZM54.412 9.11728C54.412 8.75261 54.412 8.4791 54.3195 8.2056C54.2269 7.93209 54.1344 7.65859 53.9493 7.47625C53.7642 7.29392 53.5792 7.11158 53.3015 6.92925C53.0239 6.83808 52.7463 6.74691 52.3762 6.74691C52.006 6.74691 51.7284 6.83808 51.4508 6.92925C51.1732 7.02041 50.8956 7.20275 50.7105 7.47625C50.5254 7.65859 50.3404 7.93209 50.2478 8.2056C50.1553 8.4791 50.0627 8.75261 50.0627 9.11728H54.412Z" fill="#0A1D3D"/>
<path d="M61.4448 13.4933C62.0926 13.4933 62.5552 13.4022 62.8329 13.311C63.1105 13.1287 63.2955 12.8552 63.2955 12.4905C63.2955 12.1258 63.1105 11.8523 62.8329 11.67C62.5552 11.4877 62 11.2141 61.3523 10.9406C60.8896 10.7583 60.5194 10.576 60.1493 10.4848C59.7791 10.3025 59.5015 10.1201 59.2239 9.84662C58.9463 9.57312 58.7612 9.29962 58.5761 9.02611C58.3911 8.66144 58.2985 8.2056 58.2985 7.74976C58.2985 6.83808 58.6687 6.10873 59.3164 5.56172C60.0567 5.01472 60.9821 4.74121 62.1851 4.74121C62.8329 4.74121 63.3881 4.83238 63.9433 4.92355C64.4985 5.01472 64.8687 5.10588 65.1463 5.19705L64.7761 7.11158C64.4985 7.02041 64.2209 6.92925 63.7582 6.83808C63.3881 6.74691 62.8329 6.65574 62.3702 6.65574C61.9075 6.65574 61.4448 6.74691 61.1672 6.92925C60.8896 7.11158 60.7045 7.29392 60.7045 7.65859C60.7045 7.84093 60.7045 8.02326 60.797 8.11443C60.797 8.2056 60.8896 8.38793 61.0747 8.4791C61.2597 8.57027 61.4448 8.66144 61.6299 8.84378C61.9075 8.93494 62.1851 9.02611 62.4627 9.20845C63.0179 9.39078 63.4806 9.66429 63.9433 9.84662C64.3135 10.029 64.6836 10.3025 64.8687 10.576C65.1463 10.8495 65.3314 11.123 65.4239 11.3965C65.5164 11.7612 65.609 12.1258 65.609 12.5817C65.609 13.5845 65.2388 14.3139 64.4985 14.8609C63.8508 15.2255 62.8329 15.499 61.4448 15.499C60.5194 15.499 59.7791 15.4079 59.2239 15.2255C58.6687 15.0432 58.2985 14.952 58.0209 14.8609L58.3911 12.8552C58.7612 13.0375 59.1314 13.1287 59.6866 13.311C60.2418 13.4022 60.797 13.4933 61.4448 13.4933Z" fill="#0A1D3D"/>
<path d="M70.0508 13.4933C70.6985 13.4933 71.1612 13.4022 71.4388 13.311C71.7164 13.1287 71.9015 12.8552 71.9015 12.4905C71.9015 12.1258 71.7164 11.8523 71.4388 11.67C71.1612 11.4877 70.606 11.2141 69.9582 10.9406C69.4955 10.7583 69.1254 10.576 68.7552 10.4848C68.3851 10.3025 68.1075 10.1201 67.8299 9.84663C67.5523 9.57312 67.3672 9.29962 67.1821 9.02611C66.997 8.66144 66.997 8.29677 66.997 7.74976C66.997 6.83808 67.3672 6.10873 68.0149 5.56172C68.7552 5.01472 69.6806 4.74121 70.8836 4.74121C71.5314 4.74121 72.0866 4.83238 72.6418 4.92355C73.197 5.01472 73.5672 5.10588 73.8448 5.19705L73.3821 7.11158C73.1045 7.02041 72.8269 6.92925 72.3642 6.83808C71.994 6.74691 71.4388 6.65574 70.9761 6.65574C70.5134 6.65574 70.0508 6.74691 69.7731 6.92925C69.403 7.02041 69.2179 7.29392 69.2179 7.65859C69.2179 7.84093 69.2179 8.02326 69.3105 8.11443C69.403 8.2056 69.4955 8.38794 69.5881 8.4791C69.7731 8.57027 69.9582 8.66144 70.1433 8.84378C70.4209 8.93494 70.6985 9.02611 70.9761 9.20845C71.5313 9.39078 71.994 9.66429 72.4567 9.84663C72.8269 10.029 73.197 10.3025 73.3821 10.576C73.6597 10.8495 73.8448 11.123 73.9373 11.3965C74.0299 11.7612 74.1224 12.1258 74.1224 12.5817C74.1224 13.5845 73.7522 14.3139 73.012 14.8609C72.2717 15.3167 71.2537 15.5902 69.8657 15.5902C68.9403 15.5902 68.2 15.499 67.6448 15.3167C67.0896 15.1344 66.7194 15.0432 66.4418 14.952L66.8119 12.9463C67.1821 13.1287 67.5522 13.2198 68.1075 13.4022C68.8478 13.4022 69.403 13.4933 70.0508 13.4933Z" fill="#0A1D3D"/>
<path d="M86.3373 15.4982C85.3194 15.4982 84.394 15.3159 83.5612 15.0424C82.7283 14.7689 82.0806 14.3131 81.5253 13.6749C80.9701 13.0367 80.5074 12.3074 80.2298 11.3957C79.9522 10.484 79.7671 9.48115 79.7671 8.38713C79.7671 7.29311 79.9522 6.29026 80.3223 5.37858C80.6925 4.4669 81.1552 3.73756 81.8029 3.19055C82.4507 2.55237 83.0985 2.09653 83.9313 1.82303C84.7641 1.54952 85.597 1.36719 86.5223 1.36719C87.0776 1.36719 87.6328 1.45836 88.0955 1.54952C88.5582 1.64069 88.9283 1.73186 89.2985 1.82303C89.6686 1.9142 89.9462 2.00536 90.1313 2.1877C90.3164 2.27887 90.5015 2.37004 90.594 2.4612L89.7612 4.28457C89.4835 4.10223 89.0209 3.91989 88.3731 3.73756C87.8179 3.55522 87.1701 3.46405 86.4298 3.46405C85.8746 3.46405 85.3194 3.55522 84.7641 3.73756C84.2089 3.91989 83.8388 4.1934 83.3761 4.64924C83.0059 5.01391 82.7283 5.56092 82.5432 6.1991C82.4507 6.83727 82.3582 7.56662 82.3582 8.38713C82.3582 9.11648 82.4507 9.75465 82.6358 10.3928C82.8209 11.031 83.0985 11.4868 83.3761 11.9427C83.7462 12.3985 84.1164 12.672 84.6716 12.9455C85.2268 13.219 85.8746 13.3102 86.6149 13.3102C87.5403 13.3102 88.188 13.219 88.7432 13.0367C89.2985 12.8544 89.7612 12.672 90.0388 12.4897L90.6865 14.5866C90.5015 14.6777 90.3164 14.7689 90.0388 14.8601C89.7612 14.9512 89.4835 15.0424 89.1134 15.1336C88.7432 15.2247 88.3731 15.3159 87.9104 15.3159C87.3552 15.4982 86.8925 15.4982 86.3373 15.4982Z" fill="#0A1D3D"/>
<path d="M95.8686 15.4074C95.1283 15.4074 94.5731 15.3162 94.1104 15.1339C93.6477 14.9516 93.2776 14.7692 93 14.4957C92.7224 14.2222 92.5373 13.8576 92.4448 13.4929C92.3522 13.1282 92.2597 12.6724 92.2597 12.1254V0.364672L94.6657 0V11.7607C94.6657 12.0342 94.6657 12.3077 94.7582 12.49C94.8507 12.6724 94.9433 12.8547 95.0358 13.037C95.1283 13.1282 95.3134 13.3105 95.4985 13.3105C95.6836 13.4017 95.9612 13.4017 96.3313 13.4929L95.8686 15.4074Z" fill="#0A1D3D"/>
<path d="M101.236 13.5845C101.976 13.5845 102.531 13.5845 102.902 13.4933V10.8495C102.809 10.8495 102.624 10.7583 102.346 10.7583C102.069 10.7583 101.791 10.6671 101.513 10.6671C101.236 10.6671 100.958 10.6671 100.681 10.7583C100.403 10.7583 100.218 10.8495 99.9403 10.9406C99.7552 11.0318 99.5702 11.2141 99.3851 11.3965C99.2926 11.5788 99.2 11.8523 99.2 12.1258C99.2 12.6728 99.3851 13.0375 99.7552 13.311C100.218 13.4022 100.681 13.5845 101.236 13.5845ZM101.051 4.74121C101.884 4.74121 102.531 4.83238 103.087 5.01472C103.642 5.19705 104.012 5.47056 104.382 5.83523C104.752 6.1999 104.937 6.65574 105.03 7.11158C105.215 7.56742 105.215 8.11443 105.215 8.75261V14.952C104.845 15.0432 104.29 15.1344 103.549 15.2255C102.809 15.3167 101.976 15.4079 101.051 15.4079C100.403 15.4079 99.8478 15.3167 99.3851 15.2255C98.8299 15.1344 98.4597 14.952 98.0896 14.6785C97.7194 14.405 97.4418 14.0404 97.2567 13.6757C97.0717 13.2198 96.9791 12.764 96.9791 12.1258C96.9791 11.5788 97.0717 11.0318 97.3493 10.6671C97.6269 10.3025 97.9045 9.93779 98.2746 9.66429C98.6448 9.39078 99.1075 9.20845 99.6627 9.11728C100.218 9.02611 100.773 8.93494 101.328 8.93494C101.606 8.93494 101.884 8.93494 102.161 9.02611C102.439 9.02611 102.716 9.11728 103.087 9.20845V8.75261C103.087 8.4791 103.087 8.2056 102.994 7.93209C102.902 7.65859 102.809 7.47625 102.624 7.29392C102.439 7.11158 102.254 6.92925 101.976 6.83808C101.699 6.74691 101.421 6.65574 100.958 6.65574C100.403 6.65574 99.9403 6.65574 99.4776 6.74691C99.0149 6.83808 98.6448 6.92924 98.3672 7.02041L98.0896 5.10588C98.3672 5.01472 98.8299 4.92355 99.3851 4.83238C99.7552 4.74121 100.403 4.74121 101.051 4.74121Z" fill="#0A1D3D"/>
<path d="M110.304 13.4933C110.952 13.4933 111.415 13.4022 111.692 13.311C111.97 13.1287 112.155 12.8552 112.155 12.4905C112.155 12.1258 111.97 11.8523 111.692 11.67C111.415 11.4877 110.86 11.2141 110.212 10.9406C109.749 10.7583 109.379 10.576 109.009 10.4848C108.639 10.3025 108.361 10.1201 108.084 9.84663C107.806 9.57312 107.621 9.29962 107.436 9.02611C107.251 8.66144 107.251 8.29677 107.251 7.74976C107.251 6.83808 107.621 6.10873 108.269 5.56172C109.009 5.01472 109.934 4.74121 111.137 4.74121C111.785 4.74121 112.34 4.83238 112.895 4.92355C113.451 5.01472 113.821 5.10588 114.098 5.19705L113.636 7.11158C113.358 7.02041 113.081 6.92925 112.618 6.83808C112.248 6.74691 111.692 6.65574 111.23 6.65574C110.767 6.65574 110.304 6.74691 110.027 6.92925C109.749 7.11158 109.564 7.29392 109.564 7.65859C109.564 7.84093 109.564 8.02326 109.657 8.11443C109.749 8.2056 109.842 8.38794 109.934 8.4791C110.119 8.57027 110.304 8.66144 110.49 8.84378C110.767 8.93494 111.045 9.02611 111.322 9.20845C111.878 9.39078 112.34 9.66429 112.803 9.84663C113.173 10.029 113.543 10.3025 113.728 10.576C114.006 10.8495 114.191 11.123 114.284 11.3965C114.376 11.7612 114.469 12.1258 114.469 12.5817C114.469 13.5845 114.098 14.3139 113.358 14.8609C112.618 15.3167 111.6 15.5902 110.212 15.5902C109.287 15.5902 108.546 15.499 107.991 15.3167C107.436 15.1344 107.066 15.0432 106.788 14.952L107.158 12.9463C107.528 13.1287 107.898 13.2198 108.454 13.4022C109.101 13.4022 109.657 13.4933 110.304 13.4933Z" fill="#0A1D3D"/>
<path d="M118.818 13.4933C119.466 13.4933 119.928 13.4022 120.206 13.311C120.484 13.1287 120.669 12.8552 120.669 12.4905C120.669 12.1258 120.484 11.8523 120.206 11.67C119.928 11.4877 119.373 11.2141 118.725 10.9406C118.263 10.7583 117.893 10.576 117.522 10.4848C117.152 10.3025 116.875 10.1201 116.597 9.84663C116.319 9.57312 116.134 9.29962 115.949 9.02611C115.764 8.66144 115.672 8.2056 115.672 7.74976C115.672 6.83808 116.042 6.10873 116.69 5.56172C117.43 5.01472 118.355 4.74121 119.558 4.74121C120.206 4.74121 120.761 4.83238 121.316 4.92355C121.872 5.01472 122.242 5.10588 122.519 5.19705L122.149 7.11158C121.872 7.02041 121.594 6.92925 121.131 6.83808C120.761 6.74691 120.206 6.65574 119.743 6.65574C119.281 6.65574 118.818 6.74691 118.54 6.92925C118.263 7.11158 118.078 7.29392 118.078 7.65859C118.078 7.84093 118.078 8.02326 118.17 8.11443C118.263 8.2056 118.355 8.38794 118.448 8.4791C118.633 8.57027 118.818 8.66144 119.003 8.84378C119.281 8.93494 119.558 9.02611 119.836 9.20845C120.391 9.39078 120.854 9.66429 121.316 9.84663C121.687 10.029 122.057 10.3025 122.242 10.576C122.519 10.8495 122.704 11.123 122.797 11.3965C122.89 11.7612 122.982 12.1258 122.982 12.5817C122.982 13.5845 122.612 14.3139 121.872 14.8609C121.131 15.3167 120.113 15.5902 118.725 15.5902C117.8 15.5902 117.06 15.499 116.504 15.3167C115.949 15.1344 115.579 15.0432 115.301 14.952L115.672 12.9463C116.042 13.1287 116.412 13.2198 116.967 13.4022C117.615 13.4022 118.263 13.4933 118.818 13.4933Z" fill="#0A1D3D"/>
<path d="M4.25671 31.179C3.70149 31.179 3.2388 31.0879 2.77612 30.9055C2.31343 30.7232 1.94328 30.4497 1.66567 30.1762C1.38806 29.9027 1.11045 29.3557 0.92537 28.8998C0.740296 28.444 0.647758 27.8058 0.647758 27.1676C0.647758 26.5295 0.740296 25.9825 0.92537 25.5266C1.11045 25.0708 1.38806 24.6149 1.75821 24.2503C2.12836 23.8856 2.4985 23.7033 2.96119 23.5209C3.42388 23.3386 3.88656 23.2474 4.34925 23.2474C4.62686 23.2474 4.99701 23.2474 5.18209 23.3386C5.4597 23.3386 5.64477 23.4298 5.82985 23.5209C6.01492 23.6121 6.2 23.6121 6.29254 23.7033C6.38507 23.7033 6.47761 23.7033 6.57015 23.7944L6.29254 24.7061C6.2 24.7061 6.10746 24.6149 6.01492 24.5238C5.92239 24.4326 5.73731 24.4326 5.55224 24.3414C5.36716 24.2503 5.18209 24.2503 4.99701 24.2503C4.81194 24.2503 4.62686 24.1591 4.44179 24.1591C4.07164 24.1591 3.70149 24.2503 3.33134 24.3414C2.96119 24.4326 2.68358 24.7061 2.4985 24.9796C2.31343 25.2531 2.12836 25.5266 1.94328 25.9825C1.85074 26.3471 1.75821 26.803 1.75821 27.2588C1.75821 27.7147 1.85074 28.0793 1.94328 28.5352C2.03582 28.8998 2.22089 29.2645 2.40597 29.538C2.59104 29.8115 2.86865 29.9939 3.2388 30.1762C3.60895 30.3585 3.9791 30.3585 4.34925 30.3585C4.81194 30.3585 5.27462 30.2674 5.55224 30.1762C5.92239 30.085 6.10746 29.9939 6.29254 29.9027L6.57015 30.8144C6.47761 30.8144 6.38507 30.9055 6.29254 30.9967C6.2 31.0879 6.01492 31.0879 5.82985 31.179C5.64477 31.2702 5.36716 31.2702 5.08955 31.2702C4.90448 31.179 4.53433 31.179 4.25671 31.179ZM11.0119 27.1676C11.0119 26.5295 11.1045 25.9825 11.2895 25.4355C11.4746 24.9796 11.7522 24.5238 12.1224 24.1591C12.4925 23.7944 12.8627 23.6121 13.3254 23.4298C13.7881 23.2474 14.2507 23.1562 14.7134 23.1562C15.1761 23.1562 15.6388 23.2474 16.1015 23.4298C16.5642 23.6121 16.9343 23.8856 17.3045 24.1591C17.6746 24.5238 17.8597 24.8884 18.1373 25.4355C18.3224 25.8913 18.4149 26.5295 18.4149 27.1676C18.4149 27.8058 18.3224 28.3528 18.1373 28.8998C17.9522 29.3557 17.6746 29.8115 17.3045 30.1762C16.9343 30.5409 16.5642 30.7232 16.1015 30.9055C15.6388 31.0879 15.1761 31.179 14.7134 31.179C14.2507 31.179 13.6955 31.0879 13.3254 30.9055C12.8627 30.7232 12.4925 30.4497 12.1224 30.1762C11.7522 29.8115 11.5672 29.4468 11.2895 28.8998C11.1045 28.444 11.0119 27.8058 11.0119 27.1676ZM12.1224 27.1676C12.1224 27.6235 12.2149 28.0793 12.3075 28.444C12.4 28.8087 12.5851 29.1733 12.7701 29.3557C12.9552 29.6292 13.2328 29.8115 13.603 29.9939C13.8806 30.1762 14.2507 30.1762 14.7134 30.1762C15.1761 30.1762 15.4537 30.085 15.7313 29.9939C16.009 29.8115 16.2866 29.6292 16.5642 29.3557C16.7493 29.0822 16.9343 28.8087 17.1194 28.444C17.2119 28.0793 17.3045 27.6235 17.3045 27.1676C17.3045 26.7118 17.2119 26.256 17.1194 25.8913C17.0269 25.5266 16.8418 25.1619 16.5642 24.8884C16.3791 24.6149 16.1015 24.4326 15.7313 24.2503C15.4537 24.0679 15.0836 24.0679 14.7134 24.0679C14.3433 24.0679 13.9731 24.1591 13.603 24.2503C13.3254 24.4326 13.0478 24.6149 12.7701 24.8884C12.5851 25.1619 12.4 25.4355 12.3075 25.8913C12.2149 26.3471 12.1224 26.7118 12.1224 27.1676ZM28.9642 30.9967C28.7791 30.7232 28.594 30.4497 28.409 30.085C28.2239 29.7204 27.9463 29.4468 27.7612 29.0822C27.4836 28.7175 27.2985 28.3528 27.0209 27.9882C26.7433 27.6235 26.4657 27.2588 26.2806 26.8941C26.003 26.5295 25.7254 26.256 25.5403 25.8913C25.3552 25.5266 25.0776 25.3443 24.8925 25.0708V30.9967H23.8746V23.4298H24.7075C25.0776 23.7944 25.4478 24.2503 25.8179 24.7061C26.1881 25.1619 26.6507 25.709 27.0209 26.1648C27.391 26.7118 27.7612 27.1676 28.1313 27.7147C28.5015 28.1705 28.7791 28.6263 28.9642 29.0822V23.4298H29.9821V30.9967H28.9642ZM37.2 30.2674C38.3104 30.2674 38.8657 29.9027 38.8657 29.1733C38.8657 28.8998 38.7731 28.7175 38.6806 28.6263C38.5881 28.444 38.4955 28.3528 38.3104 28.1705C38.1254 28.0793 37.9403 27.897 37.7552 27.897C37.5701 27.8058 37.2925 27.7147 37.1075 27.6235C36.8298 27.5323 36.5522 27.4412 36.2746 27.35C35.997 27.2588 35.8119 27.0765 35.6269 26.8941C35.4418 26.7118 35.2567 26.5295 35.1642 26.3471C35.0716 26.1648 34.9791 25.8913 34.9791 25.5266C34.9791 24.8884 35.1642 24.3414 35.6269 23.9768C36.0896 23.6121 36.7373 23.4298 37.5701 23.4298C38.0328 23.4298 38.4955 23.5209 38.8657 23.6121C39.2358 23.7033 39.5134 23.7944 39.6985 23.8856L39.4209 24.6149C39.2358 24.5238 39.0507 24.4326 38.6806 24.3414C38.403 24.2503 38.0328 24.1591 37.5701 24.1591C37.3851 24.1591 37.2 24.1591 37.0149 24.2503C36.8298 24.3414 36.6448 24.3414 36.5522 24.4326C36.4597 24.5238 36.2746 24.6149 36.2746 24.7973C36.1821 24.8884 36.1821 25.0708 36.1821 25.2531C36.1821 25.4355 36.1821 25.6178 36.2746 25.8001C36.3672 25.9825 36.4597 26.0736 36.6448 26.1648C36.8298 26.256 36.9224 26.3471 37.2 26.4383C37.3851 26.5295 37.6627 26.6206 37.8478 26.7118C38.2179 26.803 38.4955 26.9853 38.7731 27.0765C39.0507 27.1676 39.3284 27.35 39.5134 27.5323C39.6985 27.7147 39.8836 27.897 39.9761 28.1705C40.0687 28.444 40.1612 28.7175 40.1612 29.0822C40.1612 29.7204 39.8836 30.2674 39.4209 30.632C38.9582 30.9967 38.2179 31.179 37.3851 31.179C37.1075 31.179 36.8298 31.179 36.5522 31.0879C36.2746 31.0879 36.0896 30.9967 35.9045 30.9967C35.7194 30.9055 35.5343 30.9055 35.3493 30.8144C35.1642 30.7232 35.0716 30.7232 34.9791 30.632L35.2567 29.7204C35.4418 29.8115 35.7194 29.9027 35.997 29.9939C36.2746 30.1762 36.7373 30.2674 37.2 30.2674ZM44.7881 27.1676C44.7881 26.5295 44.8806 25.9825 45.0657 25.4355C45.2507 24.9796 45.5284 24.5238 45.8985 24.1591C46.2687 23.7944 46.6388 23.6121 47.1015 23.4298C47.5642 23.2474 48.0269 23.1562 48.4896 23.1562C48.9522 23.1562 49.4149 23.2474 49.8776 23.4298C50.3403 23.6121 50.7104 23.8856 51.0806 24.1591C51.4507 24.5238 51.6358 24.8884 51.9134 25.4355C52.0985 25.8913 52.191 26.5295 52.191 27.1676C52.191 27.8058 52.0985 28.3528 51.9134 28.8998C51.7284 29.3557 51.4507 29.8115 51.0806 30.1762C50.7104 30.5409 50.3403 30.7232 49.8776 30.9055C49.4149 31.0879 48.9522 31.179 48.4896 31.179C48.0269 31.179 47.4716 31.0879 47.1015 30.9055C46.6388 30.7232 46.2687 30.4497 45.8985 30.1762C45.5284 29.8115 45.3433 29.4468 45.0657 28.8998C44.8806 28.444 44.7881 27.8058 44.7881 27.1676ZM45.8985 27.1676C45.8985 27.6235 45.991 28.0793 46.0836 28.444C46.1761 28.8087 46.3612 29.1733 46.5463 29.3557C46.7313 29.6292 47.009 29.8115 47.3791 29.9939C47.6567 30.1762 48.0269 30.1762 48.4896 30.1762C48.9522 30.1762 49.2299 30.085 49.5075 29.9939C49.7851 29.8115 50.0627 29.6292 50.3403 29.3557C50.5254 29.0822 50.7104 28.8087 50.8955 28.444C50.9881 28.0793 51.0806 27.6235 51.0806 27.1676C51.0806 26.7118 50.9881 26.256 50.8955 25.8913C50.803 25.5266 50.6179 25.1619 50.3403 24.8884C50.1552 24.6149 49.8776 24.4326 49.5075 24.2503C49.2299 24.0679 48.8597 24.0679 48.4896 24.0679C48.1194 24.0679 47.7493 24.1591 47.3791 24.2503C47.1015 24.4326 46.8239 24.6149 46.5463 24.8884C46.3612 25.1619 46.1761 25.4355 46.0836 25.8913C45.8985 26.3471 45.8985 26.7118 45.8985 27.1676ZM62 30.085V30.9967H57.3731V23.4298H58.4836V30.085H62ZM66.9045 23.4298H68.0149V30.9967H66.9045V23.4298ZM79.8597 27.1676C79.8597 27.8058 79.7672 28.3528 79.5821 28.8998C79.397 29.3557 79.1194 29.8115 78.7493 30.085C78.3791 30.3585 77.9164 30.632 77.3612 30.8144C76.806 30.9967 76.2507 31.0879 75.603 31.0879C75.3254 31.0879 74.9552 31.0879 74.5851 31.0879C74.2149 31.0879 73.8448 30.9967 73.5672 30.9055V23.5209C73.8448 23.4298 74.2149 23.4298 74.5851 23.3386C74.9552 23.3386 75.3254 23.3386 75.603 23.3386C76.2507 23.3386 76.806 23.4298 77.3612 23.6121C77.9164 23.7944 78.3791 23.9768 78.7493 24.3414C79.1194 24.6149 79.397 25.0708 79.5821 25.5266C79.7672 25.9825 79.8597 26.5295 79.8597 27.1676ZM75.6955 30.1762C76.7134 30.1762 77.4537 29.9027 78.009 29.4468C78.4716 28.8998 78.7493 28.1705 78.7493 27.2588C78.7493 26.3471 78.4716 25.6178 78.009 25.0708C77.5463 24.5238 76.7134 24.2503 75.6955 24.2503C75.4179 24.2503 75.1403 24.2503 74.9552 24.2503C74.7702 24.2503 74.6776 24.2503 74.5851 24.2503V30.085C74.6776 30.085 74.7702 30.085 74.9552 30.085C75.1403 30.085 75.4179 30.1762 75.6955 30.1762ZM90.1313 30.9967C90.0388 30.632 89.8537 30.3585 89.7612 29.9939C89.6687 29.6292 89.5761 29.3557 89.3911 28.991H85.8746L85.2269 30.9967H84.1164C84.394 30.1762 84.6717 29.4468 84.9493 28.8087C85.2269 28.0793 85.5045 27.4412 85.6896 26.8941C85.9672 26.256 86.1522 25.709 86.4299 25.1619C86.7075 24.6149 86.8925 24.0679 87.1702 23.5209H88.1881C88.4657 24.0679 88.7433 24.6149 88.9284 25.1619C89.206 25.709 89.3911 26.256 89.6687 26.8941C89.9463 27.5323 90.1313 28.1705 90.409 28.8087C90.6866 29.4468 90.9642 30.2674 91.2418 30.9967H90.1313ZM89.1134 28.1705C88.8358 27.5323 88.6507 26.8941 88.3731 26.3471C88.1881 25.709 87.9105 25.1619 87.6328 24.6149C87.3552 25.1619 87.1702 25.709 86.8925 26.3471C86.7075 26.8941 86.4299 27.5323 86.2448 28.1705H89.1134ZM100.496 23.4298V24.3414H98.0896V30.9967H96.9791V24.3414H94.5731V23.4298H100.496ZM104.66 27.1676C104.66 26.5295 104.752 25.9825 104.937 25.4355C105.122 24.9796 105.4 24.5238 105.77 24.1591C106.14 23.7944 106.51 23.6121 106.973 23.4298C107.436 23.2474 107.899 23.1562 108.361 23.1562C108.824 23.1562 109.287 23.2474 109.749 23.4298C110.212 23.6121 110.582 23.8856 110.952 24.1591C111.322 24.5238 111.507 24.8884 111.785 25.4355C111.97 25.8913 112.063 26.5295 112.063 27.1676C112.063 27.8058 111.97 28.3528 111.785 28.8998C111.6 29.3557 111.322 29.8115 110.952 30.1762C110.582 30.5409 110.212 30.7232 109.749 30.9055C109.287 31.0879 108.824 31.179 108.361 31.179C107.899 31.179 107.343 31.0879 106.973 30.9055C106.51 30.7232 106.14 30.4497 105.77 30.1762C105.4 29.8115 105.215 29.4468 104.937 28.8998C104.752 28.444 104.66 27.8058 104.66 27.1676ZM105.77 27.1676C105.77 27.6235 105.863 28.0793 105.955 28.444C106.048 28.8087 106.233 29.1733 106.418 29.3557C106.603 29.6292 106.881 29.8115 107.251 29.9939C107.528 30.1762 107.899 30.1762 108.361 30.1762C108.731 30.1762 109.101 30.085 109.379 29.9939C109.657 29.8115 109.934 29.6292 110.212 29.3557C110.397 29.0822 110.582 28.8087 110.767 28.444C110.86 28.0793 110.952 27.6235 110.952 27.1676C110.952 26.7118 110.86 26.256 110.767 25.8913C110.675 25.5266 110.49 25.1619 110.212 24.8884C110.027 24.6149 109.749 24.4326 109.379 24.2503C109.101 24.0679 108.731 24.0679 108.361 24.0679C107.991 24.0679 107.621 24.1591 107.251 24.2503C106.973 24.4326 106.696 24.6149 106.418 24.8884C106.233 25.1619 106.048 25.4355 105.955 25.8913C105.863 26.3471 105.77 26.7118 105.77 27.1676ZM121.131 27.8058C121.224 27.9882 121.409 28.1705 121.594 28.3528C121.779 28.6263 121.964 28.8087 122.149 29.1733C122.334 29.4468 122.519 29.7204 122.704 30.085C122.89 30.3585 123.075 30.7232 123.167 30.9967H121.964C121.779 30.7232 121.687 30.4497 121.502 30.1762C121.316 29.9027 121.131 29.6292 120.946 29.3557C120.761 29.0822 120.576 28.8087 120.391 28.6263C120.206 28.444 120.021 28.1705 119.928 28.0793C119.836 28.0793 119.743 28.0793 119.651 28.0793C119.558 28.0793 119.466 28.0793 119.373 28.0793H118.448V30.9967H117.337V23.5209C117.615 23.4298 117.985 23.4298 118.355 23.3386C118.725 23.3386 119.096 23.3386 119.373 23.3386C120.484 23.3386 121.316 23.5209 121.872 23.9768C122.427 24.3414 122.704 24.9796 122.704 25.8001C122.704 26.3471 122.612 26.7118 122.334 27.0765C122.057 27.35 121.594 27.6235 121.131 27.8058ZM119.466 24.2503C119.003 24.2503 118.633 24.2503 118.448 24.2503V27.0765H119.188C119.558 27.0765 119.928 27.0765 120.206 26.9853C120.484 26.9853 120.761 26.8941 120.946 26.803C121.131 26.7118 121.316 26.5295 121.409 26.3471C121.501 26.1648 121.594 25.8913 121.594 25.6178C121.594 25.3443 121.501 25.0708 121.409 24.8884C121.316 24.7061 121.131 24.5238 120.946 24.4326C120.761 24.3414 120.576 24.2503 120.299 24.1591C120.021 24.2503 119.743 24.2503 119.466 24.2503Z" fill="#0A1D3D"/>
</g>
<defs>
<clipPath id="clip0_1_95">
<rect width="124" height="32" fill="white"/>
</clipPath>
</defs>
</svg>
