<svg width="20" height="20" viewBox="0 0 20 20" fill="none" xmlns="http://www.w3.org/2000/svg">
<path d="M6.32463 13.6899L3.73169 12.4303L4.24771 11.9142L6.34225 12.2059L9.71725 8.85175L3.75573 5.54727L4.52494 4.7492L11.8166 6.72677L14.5121 4.00725C14.7108 3.80854 14.9538 3.70918 15.2412 3.70918C15.5286 3.70918 15.7717 3.80854 15.9704 4.00725C16.1691 4.20597 16.2685 4.45036 16.2685 4.74041C16.2685 5.03047 16.1691 5.27486 15.9704 5.47358L13.2749 8.18508L15.2653 15.4687L14.4753 16.2668L11.1628 10.3052L7.82461 13.6642L8.10825 15.7668L7.58423 16.2908L6.32463 13.6899Z" fill="#0A1D3D"/>
</svg>
